<svg width="303" height="116" viewBox="0 0 303 116" fill="none" xmlns="http://www.w3.org/2000/svg">
<g clip-path="url(#clip0_312_11)">
<rect width="303" height="116" fill="white"/>
<mask id="path-1-inside-1_312_11" fill="white">
<path d="M0 -16H303V116H0V-16Z"/>
</mask>
<path d="M0 -16H303V116H0V-16Z" fill="#5188B0"/>
<path d="M0 -16V-17H-1V-16H0ZM303 -16H304V-17H303V-16ZM0 -15H303V-17H0V-15ZM302 -16V116H304V-16H302ZM1 116V-16H-1V116H1Z" fill="#3D3D3D" mask="url(#path-1-inside-1_312_11)"/>
<g filter="url(#filter0_d_312_11)">
<mask id="path-3-outside-2_312_11" maskUnits="userSpaceOnUse" x="36" y="19" width="232" height="80" fill="black">
<rect fill="white" x="36" y="19" width="232" height="80"/>
<path d="M40.1051 93V23.1818H66.8324C71.8778 23.1818 76.071 23.9773 79.4119 25.5682C82.7756 27.1364 85.2869 29.2841 86.946 32.0114C88.6278 34.7386 89.4688 37.8295 89.4688 41.2841C89.4688 44.125 88.9233 46.5568 87.8324 48.5795C86.7415 50.5795 85.2756 52.2045 83.4347 53.4545C81.5938 54.7045 79.5369 55.6023 77.2642 56.1477V56.8295C79.7415 56.9659 82.1165 57.7273 84.3892 59.1136C86.6847 60.4773 88.5597 62.4091 90.0142 64.9091C91.4688 67.4091 92.196 70.4318 92.196 73.9773C92.196 77.5909 91.321 80.8409 89.571 83.7273C87.821 86.5909 85.1847 88.8523 81.6619 90.5114C78.1392 92.1705 73.7074 93 68.3665 93H40.1051ZM52.7528 82.4318H66.3551C70.946 82.4318 74.2528 81.5568 76.2756 79.8068C78.321 78.0341 79.3438 75.7614 79.3438 72.9886C79.3438 70.9205 78.8324 69.0568 77.8097 67.3977C76.7869 65.7159 75.3324 64.3977 73.446 63.4432C71.5597 62.4659 69.3097 61.9773 66.696 61.9773H52.7528V82.4318ZM52.7528 52.875H65.2642C67.446 52.875 69.4119 52.4773 71.1619 51.6818C72.9119 50.8636 74.2869 49.7159 75.2869 48.2386C76.3097 46.7386 76.821 44.9659 76.821 42.9205C76.821 40.2159 75.8665 37.9886 73.9574 36.2386C72.071 34.4886 69.2642 33.6136 65.5369 33.6136H52.7528V52.875ZM125.835 94.0227C120.585 94.0227 116.051 92.9318 112.233 90.75C108.438 88.5455 105.517 85.4318 103.472 81.4091C101.426 77.3636 100.403 72.6023 100.403 67.125C100.403 61.7386 101.426 57.0114 103.472 52.9432C105.54 48.8523 108.426 45.6705 112.131 43.3977C115.835 41.1023 120.188 39.9545 125.188 39.9545C128.415 39.9545 131.46 40.4773 134.324 41.5227C137.21 42.5455 139.756 44.1364 141.96 46.2955C144.188 48.4545 145.938 51.2045 147.21 54.5455C148.483 57.8636 149.119 61.8182 149.119 66.4091V70.1932H106.199V61.875H137.29C137.267 59.5114 136.756 57.4091 135.756 55.5682C134.756 53.7045 133.358 52.2386 131.562 51.1705C129.79 50.1023 127.722 49.5682 125.358 49.5682C122.835 49.5682 120.619 50.1818 118.71 51.4091C116.801 52.6136 115.313 54.2045 114.244 56.1818C113.199 58.1364 112.665 60.2841 112.642 62.625V69.8864C112.642 72.9318 113.199 75.5455 114.312 77.7273C115.426 79.8864 116.983 81.5455 118.983 82.7045C120.983 83.8409 123.324 84.4091 126.006 84.4091C127.801 84.4091 129.426 84.1591 130.881 83.6591C132.335 83.1364 133.597 82.375 134.665 81.375C135.733 80.375 136.54 79.1364 137.085 77.6591L148.608 78.9545C147.881 82 146.494 84.6591 144.449 86.9318C142.426 89.1818 139.835 90.9318 136.676 92.1818C133.517 93.4091 129.903 94.0227 125.835 94.0227ZM160.105 93V23.1818H205.514V33.7841H172.753V52.7386H203.162V63.3409H172.753V82.3977H205.787V93H160.105ZM218.418 93V23.1818H263.145V33.7841H231.065V52.7386H260.077V63.3409H231.065V93H218.418Z"/>
</mask>
<path d="M40.1051 93V23.1818H66.8324C71.8778 23.1818 76.071 23.9773 79.4119 25.5682C82.7756 27.1364 85.2869 29.2841 86.946 32.0114C88.6278 34.7386 89.4688 37.8295 89.4688 41.2841C89.4688 44.125 88.9233 46.5568 87.8324 48.5795C86.7415 50.5795 85.2756 52.2045 83.4347 53.4545C81.5938 54.7045 79.5369 55.6023 77.2642 56.1477V56.8295C79.7415 56.9659 82.1165 57.7273 84.3892 59.1136C86.6847 60.4773 88.5597 62.4091 90.0142 64.9091C91.4688 67.4091 92.196 70.4318 92.196 73.9773C92.196 77.5909 91.321 80.8409 89.571 83.7273C87.821 86.5909 85.1847 88.8523 81.6619 90.5114C78.1392 92.1705 73.7074 93 68.3665 93H40.1051ZM52.7528 82.4318H66.3551C70.946 82.4318 74.2528 81.5568 76.2756 79.8068C78.321 78.0341 79.3438 75.7614 79.3438 72.9886C79.3438 70.9205 78.8324 69.0568 77.8097 67.3977C76.7869 65.7159 75.3324 64.3977 73.446 63.4432C71.5597 62.4659 69.3097 61.9773 66.696 61.9773H52.7528V82.4318ZM52.7528 52.875H65.2642C67.446 52.875 69.4119 52.4773 71.1619 51.6818C72.9119 50.8636 74.2869 49.7159 75.2869 48.2386C76.3097 46.7386 76.821 44.9659 76.821 42.9205C76.821 40.2159 75.8665 37.9886 73.9574 36.2386C72.071 34.4886 69.2642 33.6136 65.5369 33.6136H52.7528V52.875ZM125.835 94.0227C120.585 94.0227 116.051 92.9318 112.233 90.75C108.438 88.5455 105.517 85.4318 103.472 81.4091C101.426 77.3636 100.403 72.6023 100.403 67.125C100.403 61.7386 101.426 57.0114 103.472 52.9432C105.54 48.8523 108.426 45.6705 112.131 43.3977C115.835 41.1023 120.188 39.9545 125.188 39.9545C128.415 39.9545 131.46 40.4773 134.324 41.5227C137.21 42.5455 139.756 44.1364 141.96 46.2955C144.188 48.4545 145.938 51.2045 147.21 54.5455C148.483 57.8636 149.119 61.8182 149.119 66.4091V70.1932H106.199V61.875H137.29C137.267 59.5114 136.756 57.4091 135.756 55.5682C134.756 53.7045 133.358 52.2386 131.562 51.1705C129.79 50.1023 127.722 49.5682 125.358 49.5682C122.835 49.5682 120.619 50.1818 118.71 51.4091C116.801 52.6136 115.313 54.2045 114.244 56.1818C113.199 58.1364 112.665 60.2841 112.642 62.625V69.8864C112.642 72.9318 113.199 75.5455 114.312 77.7273C115.426 79.8864 116.983 81.5455 118.983 82.7045C120.983 83.8409 123.324 84.4091 126.006 84.4091C127.801 84.4091 129.426 84.1591 130.881 83.6591C132.335 83.1364 133.597 82.375 134.665 81.375C135.733 80.375 136.54 79.1364 137.085 77.6591L148.608 78.9545C147.881 82 146.494 84.6591 144.449 86.9318C142.426 89.1818 139.835 90.9318 136.676 92.1818C133.517 93.4091 129.903 94.0227 125.835 94.0227ZM160.105 93V23.1818H205.514V33.7841H172.753V52.7386H203.162V63.3409H172.753V82.3977H205.787V93H160.105ZM218.418 93V23.1818H263.145V33.7841H231.065V52.7386H260.077V63.3409H231.065V93H218.418Z" fill="#5188B0"/>
<path d="M40.1051 93H36.1051V97H40.1051V93ZM40.1051 23.1818V19.1818H36.1051V23.1818H40.1051ZM79.4119 25.5682L77.6922 29.1796L77.7069 29.1866L77.7217 29.1935L79.4119 25.5682ZM86.946 32.0114L83.5287 34.0902L83.535 34.1006L83.5413 34.1109L86.946 32.0114ZM87.8324 48.5795L91.344 50.495L91.3485 50.4866L91.353 50.4783L87.8324 48.5795ZM83.4347 53.4545L81.1877 50.1453L81.1877 50.1453L83.4347 53.4545ZM77.2642 56.1477L76.3307 52.2582L73.2642 52.9941V56.1477H77.2642ZM77.2642 56.8295H73.2642V60.6154L77.0444 60.8235L77.2642 56.8295ZM84.3892 59.1136L82.3062 62.5284L82.3261 62.5406L82.3463 62.5526L84.3892 59.1136ZM90.0142 64.9091L86.5568 66.9207L86.5568 66.9207L90.0142 64.9091ZM89.571 83.7273L92.9842 85.8131L92.9915 85.8011L89.571 83.7273ZM52.7528 82.4318H48.7528V86.4318H52.7528V82.4318ZM76.2756 79.8068L78.8927 82.8318L78.8953 82.8296L76.2756 79.8068ZM77.8097 67.3977L74.392 69.4761L74.3983 69.4864L74.4046 69.4967L77.8097 67.3977ZM73.446 63.4432L71.606 66.9948L71.623 67.0036L71.64 67.0122L73.446 63.4432ZM52.7528 61.9773V57.9773H48.7528V61.9773H52.7528ZM52.7528 52.875H48.7528V56.875H52.7528V52.875ZM71.1619 51.6818L72.8171 55.3233L72.8366 55.3144L72.8561 55.3053L71.1619 51.6818ZM75.2869 48.2386L71.982 45.9853L71.9745 45.9964L75.2869 48.2386ZM73.9574 36.2386L71.2369 39.1711L71.2457 39.1792L71.2545 39.1872L73.9574 36.2386ZM52.7528 33.6136V29.6136H48.7528V33.6136H52.7528ZM44.1051 93V23.1818H36.1051V93H44.1051ZM40.1051 27.1818H66.8324V19.1818H40.1051V27.1818ZM66.8324 27.1818C71.4873 27.1818 75.0468 27.9199 77.6922 29.1796L81.1317 21.9567C77.0953 20.0347 72.2684 19.1818 66.8324 19.1818V27.1818ZM77.7217 29.1935C80.4889 30.4836 82.3434 32.1419 83.5287 34.0902L90.3634 29.9325C88.2304 26.4263 85.0623 23.7891 81.1021 21.9428L77.7217 29.1935ZM83.5413 34.1109C84.8035 36.1577 85.4688 38.5108 85.4688 41.2841H93.4688C93.4688 37.1483 92.4522 33.3196 90.3507 29.9118L83.5413 34.1109ZM85.4688 41.2841C85.4688 43.6165 85.0221 45.3637 84.3118 46.6808L91.353 50.4783C92.8245 47.7499 93.4688 44.6335 93.4688 41.2841H85.4688ZM84.3208 46.6641C83.527 48.1194 82.4893 49.2615 81.1877 50.1453L85.6817 56.7638C88.0618 55.1476 89.9559 53.0397 91.344 50.495L84.3208 46.6641ZM81.1877 50.1453C79.7658 51.1107 78.1581 51.8196 76.3307 52.2582L78.1977 60.0373C80.9158 59.3849 83.4217 58.2983 85.6817 56.7638L81.1877 50.1453ZM73.2642 56.1477V56.8295H81.2642V56.1477H73.2642ZM77.0444 60.8235C78.8145 60.9209 80.5549 61.4601 82.3062 62.5284L86.4722 55.6988C83.6781 53.9944 80.6685 53.0109 77.4841 52.8356L77.0444 60.8235ZM82.3463 62.5526C84.0083 63.5399 85.4153 64.9587 86.5568 66.9207L93.4716 62.8975C91.704 59.8595 89.361 57.4146 86.4321 55.6747L82.3463 62.5526ZM86.5568 66.9207C87.5838 68.6859 88.196 70.9797 88.196 73.9773H96.196C96.196 69.8839 95.3537 66.1323 93.4716 62.8975L86.5568 66.9207ZM88.196 73.9773C88.196 76.9133 87.4946 79.4367 86.1506 81.6535L92.9915 85.8011C95.1475 82.2451 96.196 78.2685 96.196 73.9773H88.196ZM86.1579 81.6415C84.8776 83.7365 82.8893 85.5119 79.9576 86.8926L83.3662 94.1301C87.4801 92.1926 90.7645 89.4453 92.9842 85.8131L86.1579 81.6415ZM79.9576 86.8926C77.1276 88.2255 73.3246 89 68.3665 89V97C74.0902 97 79.1508 96.1155 83.3662 94.1301L79.9576 86.8926ZM68.3665 89H40.1051V97H68.3665V89ZM52.7528 86.4318H66.3551V78.4318H52.7528V86.4318ZM66.3551 86.4318C71.2775 86.4318 75.7776 85.5269 78.8927 82.8318L73.6584 76.7818C72.7281 77.5867 70.6146 78.4318 66.3551 78.4318V86.4318ZM78.8953 82.8296C81.8416 80.2761 83.3438 76.889 83.3438 72.9886H75.3438C75.3438 74.6337 74.8004 75.7921 73.6558 76.7841L78.8953 82.8296ZM83.3438 72.9886C83.3438 70.2265 82.6505 67.6279 81.2147 65.2987L74.4046 69.4967C75.0143 70.4857 75.3438 71.6144 75.3438 72.9886H83.3438ZM81.2273 65.3194C79.7881 62.9527 77.7528 61.1396 75.2521 59.8741L71.64 67.0122C72.9119 67.6559 73.7858 68.4792 74.392 69.4761L81.2273 65.3194ZM75.286 59.8915C72.7148 58.5594 69.8049 57.9773 66.696 57.9773V65.9773C68.8144 65.9773 70.4045 66.3724 71.606 66.9948L75.286 59.8915ZM66.696 57.9773H52.7528V65.9773H66.696V57.9773ZM48.7528 61.9773V82.4318H56.7528V61.9773H48.7528ZM52.7528 56.875H65.2642V48.875H52.7528V56.875ZM65.2642 56.875C67.9399 56.875 70.4814 56.385 72.8171 55.3233L69.5067 48.0404C68.3424 48.5696 66.9521 48.875 65.2642 48.875V56.875ZM72.8561 55.3053C75.2042 54.2075 77.1611 52.6056 78.5994 50.4809L71.9745 45.9964C71.4127 46.8263 70.6197 47.5197 69.4678 48.0583L72.8561 55.3053ZM78.5918 50.492C80.1235 48.2456 80.821 45.6642 80.821 42.9205H72.821C72.821 44.2676 72.4958 45.2317 71.982 45.9853L78.5918 50.492ZM80.821 42.9205C80.821 39.1508 79.4364 35.8348 76.6603 33.29L71.2545 39.1872C72.2966 40.1425 72.821 41.281 72.821 42.9205H80.821ZM76.6778 33.3062C73.7781 30.6161 69.8248 29.6136 65.5369 29.6136V37.6136C68.7036 37.6136 70.3639 38.3611 71.2369 39.1711L76.6778 33.3062ZM65.5369 29.6136H52.7528V37.6136H65.5369V29.6136ZM48.7528 33.6136V52.875H56.7528V33.6136H48.7528ZM112.233 90.75L110.224 94.2089L110.236 94.216L110.248 94.223L112.233 90.75ZM103.472 81.4091L99.9019 83.214L99.9061 83.2221L103.472 81.4091ZM103.472 52.9432L99.9018 51.1385L99.8979 51.1463L103.472 52.9432ZM112.131 43.3977L114.222 46.8072L114.23 46.8026L114.238 46.7979L112.131 43.3977ZM134.324 41.5227L132.952 45.2802L132.97 45.2867L132.988 45.293L134.324 41.5227ZM141.96 46.2955L139.161 49.1532L139.169 49.1604L139.176 49.1675L141.96 46.2955ZM147.21 54.5455L143.472 55.9694L143.476 55.9779L147.21 54.5455ZM149.119 70.1932V74.1932H153.119V70.1932H149.119ZM106.199 70.1932H102.199V74.1932H106.199V70.1932ZM106.199 61.875V57.875H102.199V61.875H106.199ZM137.29 61.875V65.875H141.328L141.29 61.8365L137.29 61.875ZM135.756 55.5682L132.231 57.4595L132.236 57.4685L132.241 57.4775L135.756 55.5682ZM131.562 51.1705L129.498 54.5965L129.508 54.6023L129.517 54.6081L131.562 51.1705ZM118.71 51.4091L120.845 54.792L120.859 54.783L120.873 54.7738L118.71 51.4091ZM114.244 56.1818L110.725 54.2806L110.721 54.2879L110.717 54.2952L114.244 56.1818ZM112.642 62.625L108.642 62.5862L108.642 62.6056V62.625H112.642ZM114.312 77.7273L110.75 79.5458L110.754 79.5533L110.758 79.5609L114.312 77.7273ZM118.983 82.7045L116.977 86.1654L116.992 86.1739L117.007 86.1824L118.983 82.7045ZM130.881 83.6591L132.181 87.4418L132.207 87.4328L132.233 87.4234L130.881 83.6591ZM137.085 77.6591L137.532 73.6841L134.418 73.334L133.333 76.2736L137.085 77.6591ZM148.608 78.9545L152.499 79.8836L153.549 75.4848L149.055 74.9796L148.608 78.9545ZM144.449 86.9318L141.476 84.256L141.474 84.2576L144.449 86.9318ZM136.676 92.1818L138.125 95.9103L138.136 95.9058L138.148 95.9012L136.676 92.1818ZM125.835 90.0227C121.146 90.0227 117.324 89.0521 114.218 87.277L110.248 94.223C114.778 96.8115 120.024 98.0227 125.835 98.0227V90.0227ZM114.242 87.2911C111.133 85.4851 108.744 82.9522 107.037 79.5961L99.9061 83.2221C102.29 87.9115 105.742 91.6058 110.224 94.2089L114.242 87.2911ZM107.041 79.6042C105.332 76.2232 104.403 72.1043 104.403 67.125H96.4034C96.4034 73.1002 97.5206 78.5041 99.9019 83.214L107.041 79.6042ZM104.403 67.125C104.403 62.2491 105.327 58.1574 107.045 54.74L99.8979 51.1463C97.5252 55.8653 96.4034 61.2282 96.4034 67.125H104.403ZM107.041 54.7479C108.794 51.2807 111.185 48.6707 114.222 46.8072L110.039 39.9882C105.667 42.6702 102.285 46.4239 99.9019 51.1385L107.041 54.7479ZM114.238 46.7979C117.22 44.9496 120.82 43.9545 125.188 43.9545V35.9545C119.555 35.9545 114.45 37.2549 110.024 39.9976L114.238 46.7979ZM125.188 43.9545C127.975 43.9545 130.553 44.4044 132.952 45.2802L135.696 37.7653C132.367 36.5502 128.855 35.9545 125.188 35.9545V43.9545ZM132.988 45.293C135.322 46.12 137.369 47.3978 139.161 49.1532L144.759 43.4377C142.142 40.8749 139.099 38.9709 135.66 37.7524L132.988 45.293ZM139.176 49.1675C140.924 50.8618 142.376 53.092 143.472 55.9694L150.948 53.1215C149.499 49.3171 147.451 46.0473 144.744 43.4234L139.176 49.1675ZM143.476 55.9779C144.53 58.7271 145.119 62.1719 145.119 66.4091H153.119C153.119 61.4645 152.436 57.0002 150.945 53.113L143.476 55.9779ZM145.119 66.4091V70.1932H153.119V66.4091H145.119ZM149.119 66.1932H106.199V74.1932H149.119V66.1932ZM110.199 70.1932V61.875H102.199V70.1932H110.199ZM106.199 65.875H137.29V57.875H106.199V65.875ZM141.29 61.8365C141.261 58.904 140.621 56.1447 139.271 53.6589L132.241 57.4775C132.89 58.6735 133.273 60.1188 133.29 61.9135L141.29 61.8365ZM139.28 53.6769C137.941 51.1813 136.036 49.1773 133.608 47.7328L129.517 54.6081C130.68 55.2999 131.57 56.2277 132.231 57.4595L139.28 53.6769ZM133.627 47.7444C131.147 46.2498 128.344 45.5682 125.358 45.5682V53.5682C127.099 53.5682 128.433 53.9548 129.498 54.5965L133.627 47.7444ZM125.358 45.5682C122.157 45.5682 119.172 46.3569 116.547 48.0444L120.873 54.7738C122.067 54.0067 123.514 53.5682 125.358 53.5682V45.5682ZM116.576 48.0262C114.088 49.5957 112.121 51.6958 110.725 54.2806L117.764 58.083C118.504 56.7132 119.514 55.6315 120.845 54.792L116.576 48.0262ZM110.717 54.2952C109.35 56.8506 108.671 59.6375 108.642 62.5862L116.642 62.6638C116.659 60.9306 117.047 59.4222 117.771 58.0684L110.717 54.2952ZM108.642 62.625V69.8864H116.642V62.625H108.642ZM108.642 69.8864C108.642 73.4133 109.287 76.6804 110.75 79.5458L117.875 75.9088C117.11 74.4105 116.642 72.4503 116.642 69.8864H108.642ZM110.758 79.5609C112.203 82.3629 114.281 84.603 116.977 86.1654L120.989 79.2437C119.684 78.4879 118.649 77.4098 117.867 75.8937L110.758 79.5609ZM117.007 86.1824C119.703 87.714 122.747 88.4091 126.006 88.4091V80.4091C123.901 80.4091 122.263 79.9678 120.959 79.2267L117.007 86.1824ZM126.006 88.4091C128.171 88.4091 130.245 88.1075 132.181 87.4418L129.58 79.8763C128.608 80.2107 127.431 80.4091 126.006 80.4091V88.4091ZM132.233 87.4234C134.172 86.7269 135.91 85.6884 137.398 84.2951L131.931 78.4549C131.283 79.0616 130.499 79.5459 129.528 79.8948L132.233 87.4234ZM137.398 84.2951C138.955 82.8378 140.093 81.0602 140.838 79.0446L133.333 76.2736C132.986 77.2125 132.511 77.9122 131.931 78.4549L137.398 84.2951ZM136.638 81.634L148.161 82.9295L149.055 74.9796L137.532 73.6841L136.638 81.634ZM144.717 78.0254C144.141 80.4374 143.063 82.492 141.476 84.256L147.422 89.6077C149.925 86.8262 151.62 83.5626 152.499 79.8836L144.717 78.0254ZM141.474 84.2576C139.913 85.9939 137.86 87.4117 135.204 88.4624L138.148 95.9012C141.811 94.4519 144.939 92.3698 147.424 89.606L141.474 84.2576ZM135.228 88.4533C132.613 89.4691 129.505 90.0227 125.835 90.0227V98.0227C130.302 98.0227 134.421 97.349 138.125 95.9103L135.228 88.4533ZM160.105 93H156.105V97H160.105V93ZM160.105 23.1818V19.1818H156.105V23.1818H160.105ZM205.514 23.1818H209.514V19.1818H205.514V23.1818ZM205.514 33.7841V37.7841H209.514V33.7841H205.514ZM172.753 33.7841V29.7841H168.753V33.7841H172.753ZM172.753 52.7386H168.753V56.7386H172.753V52.7386ZM203.162 52.7386H207.162V48.7386H203.162V52.7386ZM203.162 63.3409V67.3409H207.162V63.3409H203.162ZM172.753 63.3409V59.3409H168.753V63.3409H172.753ZM172.753 82.3977H168.753V86.3977H172.753V82.3977ZM205.787 82.3977H209.787V78.3977H205.787V82.3977ZM205.787 93V97H209.787V93H205.787ZM164.105 93V23.1818H156.105V93H164.105ZM160.105 27.1818H205.514V19.1818H160.105V27.1818ZM201.514 23.1818V33.7841H209.514V23.1818H201.514ZM205.514 29.7841H172.753V37.7841H205.514V29.7841ZM168.753 33.7841V52.7386H176.753V33.7841H168.753ZM172.753 56.7386H203.162V48.7386H172.753V56.7386ZM199.162 52.7386V63.3409H207.162V52.7386H199.162ZM203.162 59.3409H172.753V67.3409H203.162V59.3409ZM168.753 63.3409V82.3977H176.753V63.3409H168.753ZM172.753 86.3977H205.787V78.3977H172.753V86.3977ZM201.787 82.3977V93H209.787V82.3977H201.787ZM205.787 89H160.105V97H205.787V89ZM218.418 93H214.418V97H218.418V93ZM218.418 23.1818V19.1818H214.418V23.1818H218.418ZM263.145 23.1818H267.145V19.1818H263.145V23.1818ZM263.145 33.7841V37.7841H267.145V33.7841H263.145ZM231.065 33.7841V29.7841H227.065V33.7841H231.065ZM231.065 52.7386H227.065V56.7386H231.065V52.7386ZM260.077 52.7386H264.077V48.7386H260.077V52.7386ZM260.077 63.3409V67.3409H264.077V63.3409H260.077ZM231.065 63.3409V59.3409H227.065V63.3409H231.065ZM231.065 93V97H235.065V93H231.065ZM222.418 93V23.1818H214.418V93H222.418ZM218.418 27.1818H263.145V19.1818H218.418V27.1818ZM259.145 23.1818V33.7841H267.145V23.1818H259.145ZM263.145 29.7841H231.065V37.7841H263.145V29.7841ZM227.065 33.7841V52.7386H235.065V33.7841H227.065ZM231.065 56.7386H260.077V48.7386H231.065V56.7386ZM256.077 52.7386V63.3409H264.077V52.7386H256.077ZM260.077 59.3409H231.065V67.3409H260.077V59.3409ZM227.065 63.3409V93H235.065V63.3409H227.065ZM231.065 89H218.418V97H231.065V89Z" fill="#07132B" mask="url(#path-3-outside-2_312_11)"/>
</g>
<path d="M149.5 48.6H149.8C148.2 50.6 147.7 52.6 147.7 54.7C147.7 55.3 147.7 55.9 147.8 56.5C140.5 60.2 142 58.7 131.8 74.2C132.9 74.4 133.6 74.6 134.4 74.8C138.6 75.6 140 79.3 140 80.7C140 81.4 139.8 82.1 139.6 82.8C138.2 79 134.7 77 132.7 77C131.8 77 130.9 77.2 130.1 77.2C129.8 77.2 128.8 77.1 127.4 77.1C126 77.1 125.3 77.2 125 77.2C124.5 77.2 124.5 77.1 124 76.3C124.7 74.6 126.2 74.9 127.5 74.6C129.3 70 130.3 68.1 130.3 66C130.3 64.4 129.9 63.9 129.9 62.6C129.7 56.3 138.7 48.6 149.5 48.6Z" fill="#5188B0"/>
<path d="M174.7 49.6C174.7 34.6 152.9 36 148 22C148 22 147.1 24.1 147.1 26.8C147.1 34.8 157.8 40.4 158.4 44C157.4 46.1 155 45.5 148.3 46.6C136.2 48.6 135.1 50.5 127.5 58.6C127.4 58.6 127.3 58.6 127.2 58.6C122.8 58.6 122.4 49.2 115.2 45.5C116.7 63.7 115.9 64.4 127.4 68.8C126.7 70.6 126.1 72.1 125.5 73.6C125.1 73.7 122.3 74 122.3 76.4C122.3 77.4 122.9 78.2 123.6 79C122.7 80 121.3 81.3 121.3 84.2C121.3 87.1 123 90 126.7 90.7C129.3 91.2 131.5 94 135.2 94C140.8 94 143.4 86.4 154.4 83.5C156.5 83 158.5 82.2 160.5 81.4C163.9 80 165.9 75 165.9 71C165.9 66.2 163 64.1 163 62.4C163 58.9 174.7 57.6 174.7 49.6ZM126 63.2C123.4 63.2 121.8 59.5 119.5 55.8C119.3 56.3 119.2 56.7 119.2 57.2C119.2 58.3 119.7 59.4 119.7 60.5C119.7 61 119.6 61.5 119.3 62C117.4 59 117.5 57.6 116.6 49H116.8C118 49 118.5 49.7 121.3 54.5C122.8 57.1 123.8 60.4 126.8 60.4C127.3 60.4 127.9 60.3 128.6 60.1C128.3 61.2 128 62 127.7 62.8C127.1 63 126.6 63.2 126 63.2ZM135.9 84.6C135.9 86.9 133.1 89.2 129 89.2C126 89.2 122.9 87.8 122.9 84.7C122.9 83.1 123.8 81.9 126 80.8C125.7 81.9 125.3 82.9 125.3 83.8C125.3 85.8 127.5 86.8 129.3 86.8C131.6 86.8 133.8 85.4 133.8 83.1C133.8 82.6 133.7 82 133.4 81.3C135.1 82 135.9 83.2 135.9 84.6ZM147.1 62.9C147.1 63.8 146.3 66.1 143.1 66.1C142.5 66.1 141.7 66 140.9 65.8C144.2 62.3 142.9 63.8 145.7 60.4C146.6 61.4 147.1 62.1 147.1 62.9ZM131.8 74.2C132.9 74.4 133.6 74.6 134.4 74.8C138.6 75.6 140 79.3 140 80.7C140 81.4 139.8 82.1 139.6 82.8C138.2 79 134.7 77 132.7 77C131.8 77 130.9 77.2 130.1 77.2C129.8 77.2 128.8 77.1 127.4 77.1C126 77.1 125.3 77.2 125 77.2C124.7 77.2 124.6 77.2 124.5 77C124.1 76.6 124.2 75.9 124.6 75.5C125.4 74.8 126.5 74.9 127.6 74.6C129.4 70 130.4 68.1 130.4 66C130.4 64.4 130 63.9 130 62.6C130 56.2 138.9 48.5 149.8 48.5H150.1C148.5 50.5 148 52.5 148 54.6C148 55.2 148 55.8 148.1 56.4C140.5 60.1 142 58.7 131.8 74.2ZM172 47C165 38.6 158.7 36.8 157.8 36.6C160 39.4 165.2 43.4 165.2 46.6C165.2 50 160.8 50.6 148.7 54.5C148.7 54.3 148.7 54.1 148.7 53.9C148.7 51.8 149.5 50 151.1 48.3C156.3 47.5 160.8 47.4 160.8 44.7C160.8 40.3 147.8 33.2 147.8 26.3C147.8 25.9 147.8 25.3 147.9 23.6C149.2 27 149.7 28.5 154.7 31.7C168.2 40.2 169 39.1 172.3 46.5C172.3 46.8 172.1 46.9 172 47Z" fill="#07132B"/>
</g>
<defs>
<filter id="filter0_d_312_11" x="36.1052" y="23.1818" width="231.04" height="78.8409" filterUnits="userSpaceOnUse" color-interpolation-filters="sRGB">
<feFlood flood-opacity="0" result="BackgroundImageFix"/>
<feColorMatrix in="SourceAlpha" type="matrix" values="0 0 0 0 0 0 0 0 0 0 0 0 0 0 0 0 0 0 127 0" result="hardAlpha"/>
<feOffset dy="4"/>
<feGaussianBlur stdDeviation="2"/>
<feComposite in2="hardAlpha" operator="out"/>
<feColorMatrix type="matrix" values="0 0 0 0 0.027451 0 0 0 0 0.0745098 0 0 0 0 0.168627 0 0 0 1 0"/>
<feBlend mode="normal" in2="BackgroundImageFix" result="effect1_dropShadow_312_11"/>
<feBlend mode="normal" in="SourceGraphic" in2="effect1_dropShadow_312_11" result="shape"/>
</filter>
<clipPath id="clip0_312_11">
<rect width="303" height="116" fill="white"/>
</clipPath>
</defs>
</svg>
