<svg width="303" height="150" viewBox="0 0 303 150" fill="none" xmlns="http://www.w3.org/2000/svg">
<g clip-path="url(#clip0_312_11)">
<path d="M0 6C0 2.68629 2.68629 0 6 0H297C300.314 0 303 2.68629 303 6V150H0V6Z" fill="white"/>
<mask id="path-2-inside-1_312_11" fill="white">
<path d="M0 0H303V150H0V0Z"/>
</mask>
<path d="M0 0H303V150H0V0Z" fill="#5188B0"/>
<path d="M0 0V-1H-1V0H0ZM303 0H304V-1H303V0ZM0 1H303V-1H0V1ZM302 0V150H304V0H302ZM1 150V0H-1V150H1Z" fill="#3D3D3D" mask="url(#path-2-inside-1_312_11)"/>
<g filter="url(#filter0_d_312_11)">
<mask id="path-4-outside-2_312_11" maskUnits="userSpaceOnUse" x="37" y="44" width="232" height="80" fill="black">
<rect fill="white" x="37" y="44" width="232" height="80"/>
<path d="M41.1051 118V48.1818H67.8324C72.8778 48.1818 77.071 48.9773 80.4119 50.5682C83.7756 52.1364 86.2869 54.2841 87.946 57.0114C89.6278 59.7386 90.4688 62.8295 90.4688 66.2841C90.4688 69.125 89.9233 71.5568 88.8324 73.5795C87.7415 75.5795 86.2756 77.2045 84.4347 78.4545C82.5938 79.7045 80.5369 80.6023 78.2642 81.1477V81.8295C80.7415 81.9659 83.1165 82.7273 85.3892 84.1136C87.6847 85.4773 89.5597 87.4091 91.0142 89.9091C92.4688 92.4091 93.196 95.4318 93.196 98.9773C93.196 102.591 92.321 105.841 90.571 108.727C88.821 111.591 86.1847 113.852 82.6619 115.511C79.1392 117.17 74.7074 118 69.3665 118H41.1051ZM53.7528 107.432H67.3551C71.946 107.432 75.2528 106.557 77.2756 104.807C79.321 103.034 80.3438 100.761 80.3438 97.9886C80.3438 95.9205 79.8324 94.0568 78.8097 92.3977C77.7869 90.7159 76.3324 89.3977 74.446 88.4432C72.5597 87.4659 70.3097 86.9773 67.696 86.9773H53.7528V107.432ZM53.7528 77.875H66.2642C68.446 77.875 70.4119 77.4773 72.1619 76.6818C73.9119 75.8636 75.2869 74.7159 76.2869 73.2386C77.3097 71.7386 77.821 69.9659 77.821 67.9205C77.821 65.2159 76.8665 62.9886 74.9574 61.2386C73.071 59.4886 70.2642 58.6136 66.5369 58.6136H53.7528V77.875ZM126.835 119.023C121.585 119.023 117.051 117.932 113.233 115.75C109.438 113.545 106.517 110.432 104.472 106.409C102.426 102.364 101.403 97.6023 101.403 92.125C101.403 86.7386 102.426 82.0114 104.472 77.9432C106.54 73.8523 109.426 70.6705 113.131 68.3977C116.835 66.1023 121.188 64.9545 126.188 64.9545C129.415 64.9545 132.46 65.4773 135.324 66.5227C138.21 67.5455 140.756 69.1364 142.96 71.2955C145.188 73.4545 146.938 76.2045 148.21 79.5455C149.483 82.8636 150.119 86.8182 150.119 91.4091V95.1932H107.199V86.875H138.29C138.267 84.5114 137.756 82.4091 136.756 80.5682C135.756 78.7045 134.358 77.2386 132.562 76.1705C130.79 75.1023 128.722 74.5682 126.358 74.5682C123.835 74.5682 121.619 75.1818 119.71 76.4091C117.801 77.6136 116.313 79.2045 115.244 81.1818C114.199 83.1364 113.665 85.2841 113.642 87.625V94.8864C113.642 97.9318 114.199 100.545 115.312 102.727C116.426 104.886 117.983 106.545 119.983 107.705C121.983 108.841 124.324 109.409 127.006 109.409C128.801 109.409 130.426 109.159 131.881 108.659C133.335 108.136 134.597 107.375 135.665 106.375C136.733 105.375 137.54 104.136 138.085 102.659L149.608 103.955C148.881 107 147.494 109.659 145.449 111.932C143.426 114.182 140.835 115.932 137.676 117.182C134.517 118.409 130.903 119.023 126.835 119.023ZM161.105 118V48.1818H206.514V58.7841H173.753V77.7386H204.162V88.3409H173.753V107.398H206.787V118H161.105ZM219.418 118V48.1818H264.145V58.7841H232.065V77.7386H261.077V88.3409H232.065V118H219.418Z"/>
</mask>
<path d="M41.1051 118V48.1818H67.8324C72.8778 48.1818 77.071 48.9773 80.4119 50.5682C83.7756 52.1364 86.2869 54.2841 87.946 57.0114C89.6278 59.7386 90.4688 62.8295 90.4688 66.2841C90.4688 69.125 89.9233 71.5568 88.8324 73.5795C87.7415 75.5795 86.2756 77.2045 84.4347 78.4545C82.5938 79.7045 80.5369 80.6023 78.2642 81.1477V81.8295C80.7415 81.9659 83.1165 82.7273 85.3892 84.1136C87.6847 85.4773 89.5597 87.4091 91.0142 89.9091C92.4688 92.4091 93.196 95.4318 93.196 98.9773C93.196 102.591 92.321 105.841 90.571 108.727C88.821 111.591 86.1847 113.852 82.6619 115.511C79.1392 117.17 74.7074 118 69.3665 118H41.1051ZM53.7528 107.432H67.3551C71.946 107.432 75.2528 106.557 77.2756 104.807C79.321 103.034 80.3438 100.761 80.3438 97.9886C80.3438 95.9205 79.8324 94.0568 78.8097 92.3977C77.7869 90.7159 76.3324 89.3977 74.446 88.4432C72.5597 87.4659 70.3097 86.9773 67.696 86.9773H53.7528V107.432ZM53.7528 77.875H66.2642C68.446 77.875 70.4119 77.4773 72.1619 76.6818C73.9119 75.8636 75.2869 74.7159 76.2869 73.2386C77.3097 71.7386 77.821 69.9659 77.821 67.9205C77.821 65.2159 76.8665 62.9886 74.9574 61.2386C73.071 59.4886 70.2642 58.6136 66.5369 58.6136H53.7528V77.875ZM126.835 119.023C121.585 119.023 117.051 117.932 113.233 115.75C109.438 113.545 106.517 110.432 104.472 106.409C102.426 102.364 101.403 97.6023 101.403 92.125C101.403 86.7386 102.426 82.0114 104.472 77.9432C106.54 73.8523 109.426 70.6705 113.131 68.3977C116.835 66.1023 121.188 64.9545 126.188 64.9545C129.415 64.9545 132.46 65.4773 135.324 66.5227C138.21 67.5455 140.756 69.1364 142.96 71.2955C145.188 73.4545 146.938 76.2045 148.21 79.5455C149.483 82.8636 150.119 86.8182 150.119 91.4091V95.1932H107.199V86.875H138.29C138.267 84.5114 137.756 82.4091 136.756 80.5682C135.756 78.7045 134.358 77.2386 132.562 76.1705C130.79 75.1023 128.722 74.5682 126.358 74.5682C123.835 74.5682 121.619 75.1818 119.71 76.4091C117.801 77.6136 116.313 79.2045 115.244 81.1818C114.199 83.1364 113.665 85.2841 113.642 87.625V94.8864C113.642 97.9318 114.199 100.545 115.312 102.727C116.426 104.886 117.983 106.545 119.983 107.705C121.983 108.841 124.324 109.409 127.006 109.409C128.801 109.409 130.426 109.159 131.881 108.659C133.335 108.136 134.597 107.375 135.665 106.375C136.733 105.375 137.54 104.136 138.085 102.659L149.608 103.955C148.881 107 147.494 109.659 145.449 111.932C143.426 114.182 140.835 115.932 137.676 117.182C134.517 118.409 130.903 119.023 126.835 119.023ZM161.105 118V48.1818H206.514V58.7841H173.753V77.7386H204.162V88.3409H173.753V107.398H206.787V118H161.105ZM219.418 118V48.1818H264.145V58.7841H232.065V77.7386H261.077V88.3409H232.065V118H219.418Z" fill="#5188B0"/>
<path d="M41.1051 118H37.1051V122H41.1051V118ZM41.1051 48.1818V44.1818H37.1051V48.1818H41.1051ZM80.4119 50.5682L78.6922 54.1796L78.7069 54.1866L78.7217 54.1935L80.4119 50.5682ZM87.946 57.0114L84.5287 59.0902L84.535 59.1006L84.5413 59.1109L87.946 57.0114ZM88.8324 73.5795L92.344 75.495L92.3485 75.4866L92.353 75.4783L88.8324 73.5795ZM84.4347 78.4545L82.1877 75.1453L82.1877 75.1453L84.4347 78.4545ZM78.2642 81.1477L77.3307 77.2582L74.2642 77.9941V81.1477H78.2642ZM78.2642 81.8295H74.2642V85.6154L78.0444 85.8235L78.2642 81.8295ZM85.3892 84.1136L83.3062 87.5284L83.3261 87.5406L83.3463 87.5526L85.3892 84.1136ZM91.0142 89.9091L87.5568 91.9207L87.5568 91.9207L91.0142 89.9091ZM90.571 108.727L93.9842 110.813L93.9915 110.801L90.571 108.727ZM53.7528 107.432H49.7528V111.432H53.7528V107.432ZM77.2756 104.807L79.8927 107.832L79.8953 107.83L77.2756 104.807ZM78.8097 92.3977L75.392 94.4761L75.3983 94.4864L75.4046 94.4967L78.8097 92.3977ZM74.446 88.4432L72.606 91.9948L72.623 92.0036L72.64 92.0122L74.446 88.4432ZM53.7528 86.9773V82.9773H49.7528V86.9773H53.7528ZM53.7528 77.875H49.7528V81.875H53.7528V77.875ZM72.1619 76.6818L73.8171 80.3233L73.8366 80.3144L73.8561 80.3053L72.1619 76.6818ZM76.2869 73.2386L72.982 70.9853L72.9745 70.9964L76.2869 73.2386ZM74.9574 61.2386L72.2369 64.1711L72.2457 64.1792L72.2545 64.1872L74.9574 61.2386ZM53.7528 58.6136V54.6136H49.7528V58.6136H53.7528ZM45.1051 118V48.1818H37.1051V118H45.1051ZM41.1051 52.1818H67.8324V44.1818H41.1051V52.1818ZM67.8324 52.1818C72.4873 52.1818 76.0468 52.9199 78.6922 54.1796L82.1317 46.9567C78.0953 45.0347 73.2684 44.1818 67.8324 44.1818V52.1818ZM78.7217 54.1935C81.4889 55.4836 83.3434 57.1419 84.5287 59.0902L91.3634 54.9325C89.2304 51.4263 86.0623 48.7891 82.1021 46.9428L78.7217 54.1935ZM84.5413 59.1109C85.8035 61.1577 86.4688 63.5108 86.4688 66.2841H94.4688C94.4688 62.1483 93.4522 58.3196 91.3507 54.9118L84.5413 59.1109ZM86.4688 66.2841C86.4688 68.6165 86.0221 70.3637 85.3118 71.6808L92.353 75.4783C93.8245 72.7499 94.4688 69.6335 94.4688 66.2841H86.4688ZM85.3208 71.6641C84.527 73.1194 83.4893 74.2615 82.1877 75.1453L86.6817 81.7638C89.0618 80.1476 90.9559 78.0397 92.344 75.495L85.3208 71.6641ZM82.1877 75.1453C80.7658 76.1107 79.1581 76.8196 77.3307 77.2582L79.1977 85.0373C81.9158 84.3849 84.4217 83.2983 86.6817 81.7638L82.1877 75.1453ZM74.2642 81.1477V81.8295H82.2642V81.1477H74.2642ZM78.0444 85.8235C79.8145 85.9209 81.5549 86.4601 83.3062 87.5284L87.4722 80.6988C84.6781 78.9944 81.6685 78.0109 78.4841 77.8356L78.0444 85.8235ZM83.3463 87.5526C85.0083 88.5399 86.4153 89.9587 87.5568 91.9207L94.4716 87.8975C92.704 84.8595 90.361 82.4146 87.4321 80.6747L83.3463 87.5526ZM87.5568 91.9207C88.5838 93.6859 89.196 95.9797 89.196 98.9773H97.196C97.196 94.8839 96.3537 91.1323 94.4716 87.8975L87.5568 91.9207ZM89.196 98.9773C89.196 101.913 88.4946 104.437 87.1506 106.653L93.9915 110.801C96.1475 107.245 97.196 103.269 97.196 98.9773H89.196ZM87.1579 106.641C85.8776 108.737 83.8893 110.512 80.9576 111.893L84.3662 119.13C88.4801 117.193 91.7645 114.445 93.9842 110.813L87.1579 106.641ZM80.9576 111.893C78.1276 113.225 74.3246 114 69.3665 114V122C75.0902 122 80.1508 121.115 84.3662 119.13L80.9576 111.893ZM69.3665 114H41.1051V122H69.3665V114ZM53.7528 111.432H67.3551V103.432H53.7528V111.432ZM67.3551 111.432C72.2775 111.432 76.7776 110.527 79.8927 107.832L74.6584 101.782C73.7281 102.587 71.6146 103.432 67.3551 103.432V111.432ZM79.8953 107.83C82.8416 105.276 84.3438 101.889 84.3438 97.9886H76.3438C76.3438 99.6337 75.8004 100.792 74.6558 101.784L79.8953 107.83ZM84.3438 97.9886C84.3438 95.2265 83.6505 92.6279 82.2147 90.2987L75.4046 94.4967C76.0143 95.4857 76.3438 96.6144 76.3438 97.9886H84.3438ZM82.2273 90.3194C80.7881 87.9527 78.7528 86.1396 76.2521 84.8741L72.64 92.0122C73.9119 92.6559 74.7858 93.4792 75.392 94.4761L82.2273 90.3194ZM76.286 84.8915C73.7148 83.5594 70.8049 82.9773 67.696 82.9773V90.9773C69.8144 90.9773 71.4045 91.3724 72.606 91.9948L76.286 84.8915ZM67.696 82.9773H53.7528V90.9773H67.696V82.9773ZM49.7528 86.9773V107.432H57.7528V86.9773H49.7528ZM53.7528 81.875H66.2642V73.875H53.7528V81.875ZM66.2642 81.875C68.9399 81.875 71.4814 81.385 73.8171 80.3233L70.5067 73.0404C69.3424 73.5696 67.9521 73.875 66.2642 73.875V81.875ZM73.8561 80.3053C76.2042 79.2075 78.1611 77.6056 79.5994 75.4809L72.9745 70.9964C72.4127 71.8263 71.6197 72.5197 70.4678 73.0583L73.8561 80.3053ZM79.5918 75.492C81.1235 73.2456 81.821 70.6642 81.821 67.9205H73.821C73.821 69.2676 73.4958 70.2317 72.982 70.9853L79.5918 75.492ZM81.821 67.9205C81.821 64.1508 80.4364 60.8348 77.6603 58.29L72.2545 64.1872C73.2966 65.1425 73.821 66.281 73.821 67.9205H81.821ZM77.6778 58.3062C74.7781 55.6161 70.8248 54.6136 66.5369 54.6136V62.6136C69.7036 62.6136 71.3639 63.3611 72.2369 64.1711L77.6778 58.3062ZM66.5369 54.6136H53.7528V62.6136H66.5369V54.6136ZM49.7528 58.6136V77.875H57.7528V58.6136H49.7528ZM113.233 115.75L111.224 119.209L111.236 119.216L111.248 119.223L113.233 115.75ZM104.472 106.409L100.902 108.214L100.906 108.222L104.472 106.409ZM104.472 77.9432L100.902 76.1385L100.898 76.1463L104.472 77.9432ZM113.131 68.3977L115.222 71.8072L115.23 71.8026L115.238 71.7979L113.131 68.3977ZM135.324 66.5227L133.952 70.2802L133.97 70.2867L133.988 70.293L135.324 66.5227ZM142.96 71.2955L140.161 74.1532L140.169 74.1604L140.176 74.1675L142.96 71.2955ZM148.21 79.5455L144.472 80.9694L144.476 80.9779L148.21 79.5455ZM150.119 95.1932V99.1932H154.119V95.1932H150.119ZM107.199 95.1932H103.199V99.1932H107.199V95.1932ZM107.199 86.875V82.875H103.199V86.875H107.199ZM138.29 86.875V90.875H142.328L142.29 86.8365L138.29 86.875ZM136.756 80.5682L133.231 82.4595L133.236 82.4685L133.241 82.4775L136.756 80.5682ZM132.562 76.1705L130.498 79.5965L130.508 79.6023L130.517 79.6081L132.562 76.1705ZM119.71 76.4091L121.845 79.792L121.859 79.783L121.873 79.7738L119.71 76.4091ZM115.244 81.1818L111.725 79.2806L111.721 79.2879L111.717 79.2952L115.244 81.1818ZM113.642 87.625L109.642 87.5862L109.642 87.6056V87.625H113.642ZM115.312 102.727L111.75 104.546L111.754 104.553L111.758 104.561L115.312 102.727ZM119.983 107.705L117.977 111.165L117.992 111.174L118.007 111.182L119.983 107.705ZM131.881 108.659L133.181 112.442L133.207 112.433L133.233 112.423L131.881 108.659ZM138.085 102.659L138.532 98.6841L135.418 98.334L134.333 101.274L138.085 102.659ZM149.608 103.955L153.499 104.884L154.549 100.485L150.055 99.9796L149.608 103.955ZM145.449 111.932L142.476 109.256L142.474 109.258L145.449 111.932ZM137.676 117.182L139.125 120.91L139.136 120.906L139.148 120.901L137.676 117.182ZM126.835 115.023C122.146 115.023 118.324 114.052 115.218 112.277L111.248 119.223C115.778 121.812 121.024 123.023 126.835 123.023V115.023ZM115.242 112.291C112.133 110.485 109.744 107.952 108.037 104.596L100.906 108.222C103.29 112.911 106.742 116.606 111.224 119.209L115.242 112.291ZM108.041 104.604C106.332 101.223 105.403 97.1043 105.403 92.125H97.4034C97.4034 98.1002 98.5206 103.504 100.902 108.214L108.041 104.604ZM105.403 92.125C105.403 87.2491 106.327 83.1574 108.045 79.74L100.898 76.1463C98.5252 80.8653 97.4034 86.2282 97.4034 92.125H105.403ZM108.041 79.7479C109.794 76.2807 112.185 73.6707 115.222 71.8072L111.039 64.9882C106.667 67.6702 103.285 71.4239 100.902 76.1385L108.041 79.7479ZM115.238 71.7979C118.22 69.9496 121.82 68.9545 126.188 68.9545V60.9545C120.555 60.9545 115.45 62.2549 111.024 64.9976L115.238 71.7979ZM126.188 68.9545C128.975 68.9545 131.553 69.4044 133.952 70.2802L136.696 62.7653C133.367 61.5502 129.855 60.9545 126.188 60.9545V68.9545ZM133.988 70.293C136.322 71.12 138.369 72.3978 140.161 74.1532L145.759 68.4377C143.142 65.8749 140.099 63.9709 136.66 62.7524L133.988 70.293ZM140.176 74.1675C141.924 75.8618 143.376 78.092 144.472 80.9694L151.948 78.1215C150.499 74.3171 148.451 71.0473 145.744 68.4234L140.176 74.1675ZM144.476 80.9779C145.53 83.7271 146.119 87.1719 146.119 91.4091H154.119C154.119 86.4645 153.436 82.0002 151.945 78.113L144.476 80.9779ZM146.119 91.4091V95.1932H154.119V91.4091H146.119ZM150.119 91.1932H107.199V99.1932H150.119V91.1932ZM111.199 95.1932V86.875H103.199V95.1932H111.199ZM107.199 90.875H138.29V82.875H107.199V90.875ZM142.29 86.8365C142.261 83.904 141.621 81.1447 140.271 78.6589L133.241 82.4775C133.89 83.6735 134.273 85.1188 134.29 86.9135L142.29 86.8365ZM140.28 78.6769C138.941 76.1813 137.036 74.1773 134.608 72.7328L130.517 79.6081C131.68 80.2999 132.57 81.2277 133.231 82.4595L140.28 78.6769ZM134.627 72.7444C132.147 71.2498 129.344 70.5682 126.358 70.5682V78.5682C128.099 78.5682 129.433 78.9548 130.498 79.5965L134.627 72.7444ZM126.358 70.5682C123.157 70.5682 120.172 71.3569 117.547 73.0444L121.873 79.7738C123.067 79.0067 124.514 78.5682 126.358 78.5682V70.5682ZM117.576 73.0262C115.088 74.5957 113.121 76.6958 111.725 79.2806L118.764 83.083C119.504 81.7132 120.514 80.6315 121.845 79.792L117.576 73.0262ZM111.717 79.2952C110.35 81.8506 109.671 84.6375 109.642 87.5862L117.642 87.6638C117.659 85.9306 118.047 84.4222 118.771 83.0684L111.717 79.2952ZM109.642 87.625V94.8864H117.642V87.625H109.642ZM109.642 94.8864C109.642 98.4133 110.287 101.68 111.75 104.546L118.875 100.909C118.11 99.4105 117.642 97.4503 117.642 94.8864H109.642ZM111.758 104.561C113.203 107.363 115.281 109.603 117.977 111.165L121.989 104.244C120.684 103.488 119.649 102.41 118.867 100.894L111.758 104.561ZM118.007 111.182C120.703 112.714 123.747 113.409 127.006 113.409V105.409C124.901 105.409 123.263 104.968 121.959 104.227L118.007 111.182ZM127.006 113.409C129.171 113.409 131.245 113.107 133.181 112.442L130.58 104.876C129.608 105.211 128.431 105.409 127.006 105.409V113.409ZM133.233 112.423C135.172 111.727 136.91 110.688 138.398 109.295L132.931 103.455C132.283 104.062 131.499 104.546 130.528 104.895L133.233 112.423ZM138.398 109.295C139.955 107.838 141.093 106.06 141.838 104.045L134.333 101.274C133.986 102.213 133.511 102.912 132.931 103.455L138.398 109.295ZM137.638 106.634L149.161 107.93L150.055 99.9796L138.532 98.6841L137.638 106.634ZM145.717 103.025C145.141 105.437 144.063 107.492 142.476 109.256L148.422 114.608C150.925 111.826 152.62 108.563 153.499 104.884L145.717 103.025ZM142.474 109.258C140.913 110.994 138.86 112.412 136.204 113.462L139.148 120.901C142.811 119.452 145.939 117.37 148.424 114.606L142.474 109.258ZM136.228 113.453C133.613 114.469 130.505 115.023 126.835 115.023V123.023C131.302 123.023 135.421 122.349 139.125 120.91L136.228 113.453ZM161.105 118H157.105V122H161.105V118ZM161.105 48.1818V44.1818H157.105V48.1818H161.105ZM206.514 48.1818H210.514V44.1818H206.514V48.1818ZM206.514 58.7841V62.7841H210.514V58.7841H206.514ZM173.753 58.7841V54.7841H169.753V58.7841H173.753ZM173.753 77.7386H169.753V81.7386H173.753V77.7386ZM204.162 77.7386H208.162V73.7386H204.162V77.7386ZM204.162 88.3409V92.3409H208.162V88.3409H204.162ZM173.753 88.3409V84.3409H169.753V88.3409H173.753ZM173.753 107.398H169.753V111.398H173.753V107.398ZM206.787 107.398H210.787V103.398H206.787V107.398ZM206.787 118V122H210.787V118H206.787ZM165.105 118V48.1818H157.105V118H165.105ZM161.105 52.1818H206.514V44.1818H161.105V52.1818ZM202.514 48.1818V58.7841H210.514V48.1818H202.514ZM206.514 54.7841H173.753V62.7841H206.514V54.7841ZM169.753 58.7841V77.7386H177.753V58.7841H169.753ZM173.753 81.7386H204.162V73.7386H173.753V81.7386ZM200.162 77.7386V88.3409H208.162V77.7386H200.162ZM204.162 84.3409H173.753V92.3409H204.162V84.3409ZM169.753 88.3409V107.398H177.753V88.3409H169.753ZM173.753 111.398H206.787V103.398H173.753V111.398ZM202.787 107.398V118H210.787V107.398H202.787ZM206.787 114H161.105V122H206.787V114ZM219.418 118H215.418V122H219.418V118ZM219.418 48.1818V44.1818H215.418V48.1818H219.418ZM264.145 48.1818H268.145V44.1818H264.145V48.1818ZM264.145 58.7841V62.7841H268.145V58.7841H264.145ZM232.065 58.7841V54.7841H228.065V58.7841H232.065ZM232.065 77.7386H228.065V81.7386H232.065V77.7386ZM261.077 77.7386H265.077V73.7386H261.077V77.7386ZM261.077 88.3409V92.3409H265.077V88.3409H261.077ZM232.065 88.3409V84.3409H228.065V88.3409H232.065ZM232.065 118V122H236.065V118H232.065ZM223.418 118V48.1818H215.418V118H223.418ZM219.418 52.1818H264.145V44.1818H219.418V52.1818ZM260.145 48.1818V58.7841H268.145V48.1818H260.145ZM264.145 54.7841H232.065V62.7841H264.145V54.7841ZM228.065 58.7841V77.7386H236.065V58.7841H228.065ZM232.065 81.7386H261.077V73.7386H232.065V81.7386ZM257.077 77.7386V88.3409H265.077V77.7386H257.077ZM261.077 84.3409H232.065V92.3409H261.077V84.3409ZM228.065 88.3409V118H236.065V88.3409H228.065ZM232.065 114H219.418V122H232.065V114Z" fill="#07132B" mask="url(#path-4-outside-2_312_11)"/>
</g>
<path d="M149.5 65.6H149.8C148.2 67.6 147.7 69.6 147.7 71.7C147.7 72.3 147.7 72.9 147.8 73.5C140.5 77.2 142 75.7 131.8 91.2C132.9 91.4 133.6 91.6 134.4 91.8C138.6 92.6 140 96.3 140 97.7C140 98.4 139.8 99.1 139.6 99.8C138.2 96 134.7 94 132.7 94C131.8 94 130.9 94.2 130.1 94.2C129.8 94.2 128.8 94.1 127.4 94.1C126 94.1 125.3 94.2 125 94.2C124.5 94.2 124.5 94.1 124 93.3C124.7 91.6 126.2 91.9 127.5 91.6C129.3 87 130.3 85.1 130.3 83C130.3 81.4 129.9 80.9 129.9 79.6C129.7 73.3 138.7 65.6 149.5 65.6Z" fill="#5188B0"/>
<path d="M174.7 66.6C174.7 51.6 152.9 53 148 39C148 39 147.1 41.1 147.1 43.8C147.1 51.8 157.8 57.4 158.4 61C157.4 63.1 155 62.5 148.3 63.6C136.2 65.6 135.1 67.5 127.5 75.6C127.4 75.6 127.3 75.6 127.2 75.6C122.8 75.6 122.4 66.2 115.2 62.5C116.7 80.7 115.9 81.4 127.4 85.8C126.7 87.6 126.1 89.1 125.5 90.6C125.1 90.7 122.3 91 122.3 93.4C122.3 94.4 122.9 95.2 123.6 96C122.7 97 121.3 98.3 121.3 101.2C121.3 104.1 123 107 126.7 107.7C129.3 108.2 131.5 111 135.2 111C140.8 111 143.4 103.4 154.4 100.5C156.5 100 158.5 99.2 160.5 98.4C163.9 97 165.9 92 165.9 88C165.9 83.2 163 81.1 163 79.4C163 75.9 174.7 74.6 174.7 66.6ZM126 80.2C123.4 80.2 121.8 76.5 119.5 72.8C119.3 73.3 119.2 73.7 119.2 74.2C119.2 75.3 119.7 76.4 119.7 77.5C119.7 78 119.6 78.5 119.3 79C117.4 76 117.5 74.6 116.6 66H116.8C118 66 118.5 66.7 121.3 71.5C122.8 74.1 123.8 77.4 126.8 77.4C127.3 77.4 127.9 77.3 128.6 77.1C128.3 78.2 128 79 127.7 79.8C127.1 80 126.6 80.2 126 80.2ZM135.9 101.6C135.9 103.9 133.1 106.2 129 106.2C126 106.2 122.9 104.8 122.9 101.7C122.9 100.1 123.8 98.9 126 97.8C125.7 98.9 125.3 99.9 125.3 100.8C125.3 102.8 127.5 103.8 129.3 103.8C131.6 103.8 133.8 102.4 133.8 100.1C133.8 99.6 133.7 99 133.4 98.3C135.1 99 135.9 100.2 135.9 101.6ZM147.1 79.9C147.1 80.8 146.3 83.1 143.1 83.1C142.5 83.1 141.7 83 140.9 82.8C144.2 79.3 142.9 80.8 145.7 77.4C146.6 78.4 147.1 79.1 147.1 79.9ZM131.8 91.2C132.9 91.4 133.6 91.6 134.4 91.8C138.6 92.6 140 96.3 140 97.7C140 98.4 139.8 99.1 139.6 99.8C138.2 96 134.7 94 132.7 94C131.8 94 130.9 94.2 130.1 94.2C129.8 94.2 128.8 94.1 127.4 94.1C126 94.1 125.3 94.2 125 94.2C124.7 94.2 124.6 94.2 124.5 94C124.1 93.6 124.2 92.9 124.6 92.5C125.4 91.8 126.5 91.9 127.6 91.6C129.4 87 130.4 85.1 130.4 83C130.4 81.4 130 80.9 130 79.6C130 73.2 138.9 65.5 149.8 65.5H150.1C148.5 67.5 148 69.5 148 71.6C148 72.2 148 72.8 148.1 73.4C140.5 77.1 142 75.7 131.8 91.2ZM172 64C165 55.6 158.7 53.8 157.8 53.6C160 56.4 165.2 60.4 165.2 63.6C165.2 67 160.8 67.6 148.7 71.5C148.7 71.3 148.7 71.1 148.7 70.9C148.7 68.8 149.5 67 151.1 65.3C156.3 64.5 160.8 64.4 160.8 61.7C160.8 57.3 147.8 50.2 147.8 43.3C147.8 42.9 147.8 42.3 147.9 40.6C149.2 44 149.7 45.5 154.7 48.7C168.2 57.2 169 56.1 172.3 63.5C172.3 63.8 172.1 63.9 172 64Z" fill="#07132B"/>
</g>
<defs>
<filter id="filter0_d_312_11" x="37.1052" y="48.1818" width="231.04" height="78.8409" filterUnits="userSpaceOnUse" color-interpolation-filters="sRGB">
<feFlood flood-opacity="0" result="BackgroundImageFix"/>
<feColorMatrix in="SourceAlpha" type="matrix" values="0 0 0 0 0 0 0 0 0 0 0 0 0 0 0 0 0 0 127 0" result="hardAlpha"/>
<feOffset dy="4"/>
<feGaussianBlur stdDeviation="2"/>
<feComposite in2="hardAlpha" operator="out"/>
<feColorMatrix type="matrix" values="0 0 0 0 0.027451 0 0 0 0 0.0745098 0 0 0 0 0.168627 0 0 0 1 0"/>
<feBlend mode="normal" in2="BackgroundImageFix" result="effect1_dropShadow_312_11"/>
<feBlend mode="normal" in="SourceGraphic" in2="effect1_dropShadow_312_11" result="shape"/>
</filter>
<clipPath id="clip0_312_11">
<path d="M0 6C0 2.68629 2.68629 0 6 0H297C300.314 0 303 2.68629 303 6V150H0V6Z" fill="white"/>
</clipPath>
</defs>
</svg>
